<svg width="165" height="158" viewBox="0 0 165 158" fill="none" xmlns="http://www.w3.org/2000/svg">
<path d="M42.6127 78.8029C45.5965 81.7867 50.4341 81.7867 53.4179 78.8029L79.2307 52.9901C80.9845 51.2362 83.4804 50.4431 85.925 50.8622C88.3697 51.2814 90.4604 52.8605 91.5298 55.0993C92.9261 58.0224 92.3266 61.5045 90.0359 63.7953L85.5995 68.2316C82.6158 71.2154 82.6158 76.053 85.5995 79.0368C88.5833 82.0205 93.4209 82.0205 96.4047 79.0368L100.841 74.6004C103.13 72.3116 106.617 71.7117 109.539 73.1073C111.777 74.1765 113.357 76.2659 113.776 78.711C114.195 81.1562 113.4 83.6515 111.646 85.4055L98.6826 98.3692C95.6989 101.353 95.6989 106.191 98.6826 109.174C101.666 112.158 106.504 112.158 109.488 109.174L153.021 65.641C167.94 50.7222 167.94 26.534 153.021 11.6151C138.102 -3.30368 113.914 -3.30368 98.9954 11.6151L42.6127 67.9977C39.6289 70.9815 39.6289 75.8191 42.6127 78.8029ZM142.216 22.4202C151.167 31.3716 151.167 45.8844 142.216 54.8357C133.265 63.787 118.752 63.787 109.801 54.8357C100.849 45.8844 100.849 31.3715 109.801 22.4202C118.752 13.4689 133.265 13.469 142.216 22.4202ZM3.16751 118.248C0.183746 115.264 0.183685 110.427 3.16751 107.443L25.4414 85.1691C28.4251 82.1853 33.2628 82.1853 36.2466 85.1691C39.2303 88.1527 39.2303 92.9905 36.2466 95.9742L13.9727 118.248C10.9889 121.232 6.15128 121.232 3.16751 118.248ZM92.3165 115.54C95.3003 118.524 95.3003 123.362 92.3165 126.346L63.4426 155.22C60.4588 158.203 55.6212 158.203 52.6374 155.22C49.6537 152.236 49.6536 147.398 52.6374 144.414L81.5113 115.54C84.4951 112.557 89.3327 112.557 92.3165 115.54ZM79.2334 96.208L54.9154 120.526C51.9315 123.51 47.094 123.51 44.1102 120.526C41.1265 117.542 41.1264 112.705 44.1102 109.721L68.4282 85.4029C71.412 82.4192 76.2496 82.4192 79.2334 85.4029C82.2171 88.3866 82.2171 93.2243 79.2334 96.208ZM13.9727 150.664C10.9889 147.68 10.9889 142.842 13.9727 139.858L26.9389 126.892C29.9226 123.908 34.7603 123.908 37.744 126.892C40.7278 129.876 40.7278 134.714 37.744 137.697L24.7779 150.664C21.794 153.647 16.9565 153.647 13.9727 150.664ZM126.008 33.1275C129.046 33.1275 131.509 35.5901 131.509 38.628C131.509 41.6658 129.046 44.1286 126.008 44.1286C122.97 44.1286 120.508 41.6658 120.508 38.628C120.508 35.5901 122.97 33.1275 126.008 33.1275Z" fill="#7008e7"/>
</svg>
